<svg width="490" height="491" viewBox="0 0 490 491" fill="none" xmlns="http://www.w3.org/2000/svg">
<path d="M490 460C490 476.569 476.569 490 460 490L30 490C13.4314 490 1.17422e-06 476.568 2.62268e-06 460L2.14186e-05 245L490 245L490 460Z" fill="white"/>
<rect x="5" y="5.06439" width="480" height="480" rx="25" stroke="#0E1620" stroke-width="10"/>
<path d="M0 30C0 13.4315 13.4315 0 30 0H460C476.569 0 490 13.4315 490 30V245H0V30Z" fill="#0E1620"/>
<path d="M55 84.78C58.96 81.78 61.9 80.04 63.82 79.56C66.58 78.84 71.38 78.3 78.22 77.94C81.58 77.82 85.72 77.64 90.64 77.4C96.4 77.16 100.12 76.92 101.8 76.68C103.48 76.32 104.32 75.54 104.32 74.34C104.32 73.74 104.14 72.96 103.78 72C103.42 70.92 102.88 69.42 102.16 67.5C101.44 65.46 100.78 63.6 100.18 61.92L98.2 58.14L101.26 56.88C103.54 55.44 106.36 54.72 109.72 54.72C115.12 54.72 120.34 56.46 125.38 59.94C130.54 63.42 133.12 66.96 133.12 70.56V71.46C132.76 71.58 132.58 71.82 132.58 72.18C132.58 73.02 135.28 73.44 140.68 73.44C147.76 73.44 151.3 73.32 151.3 73.08L152.38 67.86C152.38 66.9 152.32 65.34 152.2 63.18C152.2 61.02 152.2 59.4 152.2 58.32C152.2 53.4 152.5 50.94 153.1 50.94C153.22 50.94 153.4 51.06 153.64 51.3C156.64 50.46 159.76 50.04 163 50.04C168.52 50.04 172.96 51.48 176.32 54.36C179.68 57.24 181.36 61.32 181.36 66.6C181.36 67.32 181.24 68.64 181 70.56C180.88 70.8 180.82 71.1 180.82 71.46C180.82 72.42 181.96 73.14 184.24 73.62C186.52 73.98 188.98 74.34 191.62 74.7C194.26 75.06 195.82 75.6 196.3 76.32C198.46 76.32 199.54 77.7 199.54 80.46C199.54 82.02 199.12 84.3 198.28 87.3C198.16 88.14 195.04 88.74 188.92 89.1C182.92 89.34 179.86 90.12 179.74 91.44C178.9 106.68 176.92 119.46 173.8 129.78H175.78C177.34 129.78 181.72 129.6 188.92 129.24C196.24 128.88 201.7 128.7 205.3 128.7C212.5 128.7 215.86 129.36 215.38 130.68C215.5 130.56 215.68 130.5 215.92 130.5C216.64 130.5 217.24 131.16 217.72 132.48C218.32 133.8 218.62 135.18 218.62 136.62C218.62 138.9 217.96 140.04 216.64 140.04H216.28C209.92 143.16 203.74 145.2 197.74 146.16C191.74 147 183.28 147.42 172.36 147.42C169.6 147.42 163.9 147.42 155.26 147.42C146.62 147.3 139.24 147.24 133.12 147.24C124.36 147.24 115.36 147.3 106.12 147.42C96.88 147.42 91.6 147.42 90.28 147.42C87.52 147.42 85.42 147.42 83.98 147.42C82.54 147.3 81.1 147.12 79.66 146.88C78.22 146.52 77.26 146.28 76.78 146.16C76.3 145.92 75.1 145.38 73.18 144.54C71.38 143.7 69.82 142.98 68.5 142.38C67.18 141.78 65.86 140.76 64.54 139.32C63.34 137.88 62.74 136.62 62.74 135.54C64.66 134.82 66.58 133.98 68.5 133.02C70.54 132.06 72.7 131.46 74.98 131.22C77.26 130.98 83.2 130.8 92.8 130.68C94.36 130.68 95.56 130.68 96.4 130.68C109.84 130.56 116.56 130.26 116.56 129.78C116.56 129.54 116.14 129.12 115.3 128.52C114.58 127.92 113.68 127.02 112.6 125.82C111.52 124.62 110.74 123.24 110.26 121.68C109.3 118.56 108.52 113.64 107.92 106.92C107.32 100.08 106.78 95.64 106.3 93.6C93.7 94.32 85.9 94.68 82.9 94.68C66.1 94.68 56.8 91.38 55 84.78ZM79.48 194.58C79.48 191.58 81.04 187.56 84.16 182.52C87.4 177.48 91 172.38 94.96 167.22C98.92 162.06 101.32 158.64 102.16 156.96C105.76 154.44 110.38 153.18 116.02 153.18C121.3 153.18 125.08 154.5 127.36 157.14C129.4 158.22 130.42 159.96 130.42 162.36C130.42 163.08 130.24 163.62 129.88 163.98C128.32 165.54 125.38 168.78 121.06 173.7C116.86 178.5 113.2 182.52 110.08 185.76C107.08 188.88 103.3 191.88 98.74 194.76C94.3 197.64 90.1 199.08 86.14 199.08C83.98 199.08 82.12 198.78 80.56 198.18C79.84 197.34 79.48 196.14 79.48 194.58ZM120.7 129.96C120.7 130.44 127.12 130.68 139.96 130.68H159.04L157.06 127.44C155.5 126.6 154.3 123.9 153.46 119.34C152.74 114.78 152.2 109.14 151.84 102.42C151.6 95.7 151.42 91.68 151.3 90.36C150.46 90 148.78 89.82 146.26 89.82C144.7 89.82 143.08 89.94 141.4 90.18C139.72 90.3 138.34 90.48 137.26 90.72C136.18 90.84 135.64 90.96 135.64 91.08H135.82C125.74 109.44 120.7 122.4 120.7 129.96ZM161.2 165.06C161.2 163.14 162.22 161.58 164.26 160.38C166.3 159.06 169.12 158.4 172.72 158.4C181 158.4 188.68 161.34 195.76 167.22C202.96 173.1 208.3 179.46 211.78 186.3V187.74C211.78 192.54 209.2 194.94 204.04 194.94C199.72 194.94 194.68 193.44 188.92 190.44C183.16 187.44 178.78 184.14 175.78 180.54C173.14 177.18 170.08 174.42 166.6 172.26C163 170.1 161.2 167.7 161.2 165.06Z" fill="white"/>
<path d="M274.6 59.4L276.58 57.78C279.58 55.14 282.7 53.82 285.94 53.82C287.5 53.82 290.92 54.48 296.2 55.8C301.6 57.12 306.46 57.78 310.78 57.78C359.02 57.78 393.04 56.94 412.84 55.26L425.44 54.72L428.86 56.88C430.42 57.84 431.38 58.5 431.74 58.86C432.22 59.22 432.76 60.12 433.36 61.56C433.96 62.88 434.26 64.62 434.26 66.78C434.38 68.82 434.44 72 434.44 76.32C434.44 81.48 434.38 89.64 434.26 100.8C434.26 111.96 434.26 119.76 434.26 124.2C434.26 131.4 434.26 141.72 434.26 155.16C434.38 168.6 434.44 178.98 434.44 186.3C434.44 189.3 434.26 191.52 433.9 192.96C433.54 194.4 433.12 195.3 432.64 195.66C432.16 195.9 431.2 196.32 429.76 196.92C428.32 197.4 427 198 425.8 198.72H424.18C419.02 198.72 411.94 197.1 402.94 193.86C394.06 190.62 388 188.7 384.76 188.1C383.32 187.74 382.6 187.38 382.6 187.02C382.6 186.66 382.9 186.3 383.5 185.94C384.22 185.46 384.94 185.1 385.66 184.86C386.5 184.5 387.22 184.2 387.82 183.96C388.42 183.6 388.72 183.36 388.72 183.24C389.2 182.28 393.88 181.68 402.76 181.44L409.24 181.26L409.42 176.22C409.18 173.7 408.88 170.88 408.52 167.76C408.16 164.52 407.92 162.36 407.8 161.28C407.68 160.08 407.56 158.1 407.44 155.34C407.32 152.58 407.2 149.52 407.08 146.16C407.08 142.8 407.08 138.3 407.08 132.66V72.54L385.12 72.9C364.96 73.14 349.96 73.26 340.12 73.26C322.48 73.26 311.8 73.08 308.08 72.72L301.42 72.18L301.96 76.14C303.4 101.46 304.12 125.88 304.12 149.4V168.12C304.12 170.4 303.88 172.44 303.4 174.24C303.04 176.04 302.62 177.36 302.14 178.2C301.78 178.92 301 180.06 299.8 181.62C298.6 183.18 297.82 184.26 297.46 184.86C297.7 186.18 296.32 188.1 293.32 190.62C290.32 193.14 287.56 194.4 285.04 194.4C284.2 194.4 283.48 194.22 282.88 193.86C280.48 186.78 278.68 178.74 277.48 169.74C276.4 160.74 275.8 152.82 275.68 145.98C275.56 139.02 275.44 129.54 275.32 117.54C275.32 105.42 275.2 95.64 274.96 88.2L274.6 59.4ZM315.28 97.38C315.28 96.18 315.76 94.98 316.72 93.78C317.68 92.46 318.7 91.8 319.78 91.8C335.38 90.6 347.44 90 355.96 90C370.12 90 378.34 91.44 380.62 94.32L384.04 96.66L381.7 99C379.54 100.8 376.36 102.18 372.16 103.14C367.96 104.1 364.24 104.7 361 104.94C357.76 105.06 352.66 105.12 345.7 105.12C338.74 105.12 334.12 105.18 331.84 105.3C327.88 105.3 325.18 105.12 323.74 104.76C322.42 104.4 321.1 103.56 319.78 102.24C318.58 100.92 317.26 99.84 315.82 99C315.46 98.64 315.28 98.1 315.28 97.38ZM322.84 128.34C322.84 124.86 323.2 123.12 323.92 123.12C324.04 123.12 324.1 123.18 324.1 123.3C324.1 123.3 324.16 123.3 324.28 123.3C324.4 121.86 325.48 120.66 327.52 119.7C329.56 118.62 331.9 118.08 334.54 118.08C336.1 118.08 337.78 118.38 339.58 118.98C342.58 119.46 348.1 119.82 356.14 120.06C364.3 120.3 371.14 120.9 376.66 121.86C382.18 122.82 385.6 124.5 386.92 126.9C388.36 129.78 389.08 132.54 389.08 135.18C389.08 137.7 388.36 141.18 386.92 145.62C385.6 149.94 384.94 153 384.94 154.8C384.94 156.48 385.24 157.92 385.84 159.12C386.92 160.56 387.46 161.82 387.46 162.9C387.46 164.7 386.02 166.44 383.14 168.12L378.64 171L365.5 171.54H363.52C361.36 171.54 357.64 171.66 352.36 171.9C347.2 172.14 343.36 172.26 340.84 172.26C333.64 172.26 329.14 171.36 327.34 169.56C326.38 169.44 325.42 168.96 324.46 168.12C323.62 167.28 323.2 166.38 323.2 165.42C323.2 164.7 323.56 164.1 324.28 163.62H324.46C324.82 163.62 325 162.6 325 160.56C325 158.4 324.64 153.24 323.92 145.08C323.2 136.92 322.84 131.34 322.84 128.34ZM340.3 155.88C340.3 156.6 341.92 156.96 345.16 156.96C347.8 156.96 351.58 156.72 356.5 156.24C361.54 155.76 364.12 155.52 364.24 155.52H364.42C364.78 155.16 365.08 151.8 365.32 145.44L365.68 135.72L363.34 135.18C361.54 134.7 358.48 134.34 354.16 134.1L347.14 133.56L346.24 137.34C346.12 138.18 346 139.5 345.88 141.3C345.76 142.98 345.64 144.36 345.52 145.44C345.4 146.4 345.22 147.54 344.98 148.86C344.74 150.06 344.38 151.08 343.9 151.92C343.42 152.76 342.82 153.42 342.1 153.9C340.9 154.74 340.3 155.4 340.3 155.88Z" fill="white"/>
<path d="M55.164 400V313.76H75.6152V350.535L104.875 313.76H130.378L98.4688 353.369L134.505 400H108.202L84.9784 368.83L75.6152 379.487V400H55.164ZM148.163 427.535C145.288 427.535 142.475 427.248 139.723 426.673C136.972 426.098 134.446 425.174 132.147 423.901L136.397 407.022C137.752 407.721 139.231 408.275 140.832 408.686C142.434 409.096 143.933 409.302 145.329 409.302C147.588 409.302 149.497 408.829 151.058 407.885C152.659 406.94 153.809 405.38 154.507 403.203L155.431 400.246L131.038 337.168H152.967L166.889 380.226L180.379 337.168H201.755L175.698 406.222C173.562 411.56 171.078 415.77 168.244 418.85C165.452 421.971 162.351 424.188 158.943 425.502C155.534 426.858 151.941 427.535 148.163 427.535ZM239.903 401.848C233.045 401.848 226.988 400.349 221.731 397.351C216.475 394.312 212.348 390.267 209.35 385.216C206.393 380.165 204.915 374.621 204.915 368.584C204.915 364.19 205.756 360.001 207.44 356.018C209.165 351.993 211.588 348.441 214.709 345.361C217.83 342.24 221.526 339.796 225.797 338.03C230.068 336.223 234.77 335.32 239.903 335.32C246.761 335.32 252.819 336.839 258.075 339.878C263.332 342.876 267.439 346.901 270.395 351.952C273.352 357.003 274.831 362.547 274.831 368.584C274.831 372.978 273.989 377.187 272.305 381.212C270.621 385.195 268.219 388.727 265.098 391.807C261.977 394.887 258.281 397.331 254.01 399.138C249.739 400.945 245.037 401.848 239.903 401.848ZM239.903 384.477C242.778 384.477 245.365 383.84 247.665 382.567C249.965 381.253 251.772 379.405 253.086 377.023C254.4 374.641 255.057 371.828 255.057 368.584C255.057 365.299 254.4 362.486 253.086 360.145C251.813 357.763 250.026 355.935 247.727 354.662C245.427 353.348 242.819 352.691 239.903 352.691C236.988 352.691 234.38 353.348 232.08 354.662C229.78 355.935 227.973 357.763 226.659 360.145C225.345 362.486 224.688 365.299 224.688 368.584C224.688 371.828 225.345 374.641 226.659 377.023C228.015 379.405 229.842 381.253 232.142 382.567C234.441 383.84 237.029 384.477 239.903 384.477ZM217.543 324.232V311.912H262.264V324.232H217.543ZM313.507 401.848C307.552 401.848 302.213 400.472 297.491 397.721C292.768 394.928 289.051 391.047 286.341 386.078C283.631 381.068 282.275 375.237 282.275 368.584C282.275 363.861 283.056 359.488 284.616 355.463C286.177 351.439 288.353 347.927 291.146 344.93C293.979 341.891 297.326 339.529 301.187 337.846C305.047 336.162 309.277 335.32 313.876 335.32C318.681 335.32 323.014 336.265 326.874 338.154C330.734 340.043 334.102 342.856 336.976 346.593L332.356 351.213V311.296H352.561V400H335.128V383.676L337.9 388.234C336.093 392.259 333.075 395.544 328.845 398.09C324.615 400.595 319.502 401.848 313.507 401.848ZM317.264 384.477C320.139 384.477 322.726 383.84 325.026 382.567C327.326 381.253 329.133 379.405 330.447 377.023C331.761 374.641 332.418 371.828 332.418 368.584C332.418 365.299 331.761 362.486 330.447 360.145C329.174 357.763 327.387 355.935 325.087 354.662C322.788 353.348 320.18 352.691 317.264 352.691C314.349 352.691 311.741 353.348 309.441 354.662C307.141 355.935 305.334 357.763 304.02 360.145C302.706 362.486 302.049 365.299 302.049 368.584C302.049 371.828 302.706 374.641 304.02 377.023C305.375 379.405 307.203 381.253 309.503 382.567C311.802 383.84 314.39 384.477 317.264 384.477ZM399.317 401.848C392.459 401.848 386.402 400.349 381.145 397.351C375.889 394.312 371.762 390.267 368.764 385.216C365.807 380.165 364.329 374.621 364.329 368.584C364.329 364.19 365.17 360.001 366.854 356.018C368.579 351.993 371.002 348.441 374.123 345.361C377.244 342.24 380.94 339.796 385.211 338.03C389.482 336.223 394.184 335.32 399.317 335.32C406.176 335.32 412.233 336.839 417.489 339.878C422.746 342.876 426.853 346.901 429.809 351.952C432.766 357.003 434.245 362.547 434.245 368.584C434.245 372.978 433.403 377.187 431.719 381.212C430.035 385.195 427.633 388.727 424.512 391.807C421.391 394.887 417.695 397.331 413.424 399.138C409.153 400.945 404.451 401.848 399.317 401.848ZM399.317 384.477C402.192 384.477 404.779 383.84 407.079 382.567C409.379 381.253 411.186 379.405 412.5 377.023C413.814 374.641 414.471 371.828 414.471 368.584C414.471 365.299 413.814 362.486 412.5 360.145C411.227 357.763 409.44 355.935 407.141 354.662C404.841 353.348 402.233 352.691 399.317 352.691C396.402 352.691 393.794 353.348 391.494 354.662C389.194 355.935 387.388 357.763 386.073 360.145C384.759 362.486 384.102 365.299 384.102 368.584C384.102 371.828 384.759 374.641 386.073 377.023C387.429 379.405 389.256 381.253 391.556 382.567C393.856 383.84 396.443 384.477 399.317 384.477ZM376.957 324.232V311.912H421.678V324.232H376.957Z" fill="#0E1620"/>
</svg>
